<?xml version="1.0" encoding="utf-8" standalone="no"?>
<!DOCTYPE svg PUBLIC "-//W3C//DTD SVG 1.1//EN"
  "http://www.w3.org/Graphics/SVG/1.1/DTD/svg11.dtd">
<svg xmlns:xlink="http://www.w3.org/1999/xlink" width="225.637795pt" height="225.637795pt" viewBox="0 0 225.637795 225.637795" xmlns="http://www.w3.org/2000/svg" version="1.1">
 <metadata>
  <rdf:RDF xmlns:dc="http://purl.org/dc/elements/1.1/" xmlns:cc="http://creativecommons.org/ns#" xmlns:rdf="http://www.w3.org/1999/02/22-rdf-syntax-ns#">
   <cc:Work>
    <dc:type rdf:resource="http://purl.org/dc/dcmitype/StillImage"/>
    <dc:date>2026-07-03T17:27:26.875984</dc:date>
    <dc:format>image/svg+xml</dc:format>
    <dc:creator>
     <cc:Agent>
      <dc:title>Matplotlib v3.10.9, https://matplotlib.org/</dc:title>
     </cc:Agent>
    </dc:creator>
   </cc:Work>
  </rdf:RDF>
 </metadata>
 <defs>
  <style type="text/css">*{stroke-linejoin: round; stroke-linecap: butt}</style>
 </defs>
 <g id="figure_1">
  <g id="patch_1">
   <path d="M 0 225.637795 
L 225.637795 225.637795 
L 225.637795 0 
L 0 0 
z
" style="fill: #ffffff"/>
  </g>
  <g id="axes_1">
   <g id="patch_2">
    <path d="M 55.306334 187.962712 
L 222.637555 187.962712 
L 222.637555 17.589615 
L 55.306334 17.589615 
z
" style="fill: #ffffff"/>
   </g>
   <g id="matplotlib.axis_1">
    <g id="xtick_1">
     <g id="line2d_1">
      <defs>
       <path id="m441977a965" d="M 0 0 
L 0 6 
" style="stroke: #262626; stroke-width: 1.25"/>
      </defs>
      <g>
       <use xlink:href="#m441977a965" x="59.807823" y="187.962712" style="fill: #262626; stroke: #262626; stroke-width: 1.25"/>
      </g>
     </g>
     <g id="text_1">
      <text style="font-size: 11px; font-family: 'Arial', 'DejaVu Sans', 'Liberation Sans', 'Bitstream Vera Sans', sans-serif; text-anchor: middle; fill: #262626" x="59.807823" y="205.336305" transform="rotate(-0 59.807823 205.336305)">0</text>
     </g>
    </g>
    <g id="xtick_2">
     <g id="line2d_2">
      <g>
       <use xlink:href="#m441977a965" x="121.89733" y="187.962712" style="fill: #262626; stroke: #262626; stroke-width: 1.25"/>
      </g>
     </g>
     <g id="text_2">
      <text style="font-size: 11px; font-family: 'Arial', 'DejaVu Sans', 'Liberation Sans', 'Bitstream Vera Sans', sans-serif; text-anchor: middle; fill: #262626" x="121.89733" y="205.336305" transform="rotate(-0 121.89733 205.336305)">20</text>
     </g>
    </g>
    <g id="xtick_3">
     <g id="line2d_3">
      <g>
       <use xlink:href="#m441977a965" x="183.986837" y="187.962712" style="fill: #262626; stroke: #262626; stroke-width: 1.25"/>
      </g>
     </g>
     <g id="text_3">
      <text style="font-size: 11px; font-family: 'Arial', 'DejaVu Sans', 'Liberation Sans', 'Bitstream Vera Sans', sans-serif; text-anchor: middle; fill: #262626" x="183.986837" y="205.336305" transform="rotate(-0 183.986837 205.336305)">40</text>
     </g>
    </g>
    <g id="text_4">
     <text style="font-size: 12px; font-family: 'Arial', 'DejaVu Sans', 'Liberation Sans', 'Bitstream Vera Sans', sans-serif; text-anchor: middle; fill: #262626" x="138.971945" y="220.11193" transform="rotate(-0 138.971945 220.11193)">Lag</text>
    </g>
   </g>
   <g id="matplotlib.axis_2">
    <g id="ytick_1">
     <g id="line2d_4">
      <defs>
       <path id="m02b8156420" d="M 0 0 
L -6 0 
" style="stroke: #262626; stroke-width: 1.25"/>
      </defs>
      <g>
       <use xlink:href="#m02b8156420" x="55.306334" y="186.311036" style="fill: #262626; stroke: #262626; stroke-width: 1.25"/>
      </g>
     </g>
     <g id="text_5">
      <text style="font-size: 11px; font-family: 'Arial', 'DejaVu Sans', 'Liberation Sans', 'Bitstream Vera Sans', sans-serif; text-anchor: end; fill: #262626" x="45.806334" y="190.247833" transform="rotate(-0 45.806334 190.247833)">−0.02</text>
     </g>
    </g>
    <g id="ytick_2">
     <g id="line2d_5">
      <g>
       <use xlink:href="#m02b8156420" x="55.306334" y="157.640728" style="fill: #262626; stroke: #262626; stroke-width: 1.25"/>
      </g>
     </g>
     <g id="text_6">
      <text style="font-size: 11px; font-family: 'Arial', 'DejaVu Sans', 'Liberation Sans', 'Bitstream Vera Sans', sans-serif; text-anchor: end; fill: #262626" x="45.806334" y="161.577525" transform="rotate(-0 45.806334 161.577525)">0.00</text>
     </g>
    </g>
    <g id="ytick_3">
     <g id="line2d_6">
      <g>
       <use xlink:href="#m02b8156420" x="55.306334" y="128.970421" style="fill: #262626; stroke: #262626; stroke-width: 1.25"/>
      </g>
     </g>
     <g id="text_7">
      <text style="font-size: 11px; font-family: 'Arial', 'DejaVu Sans', 'Liberation Sans', 'Bitstream Vera Sans', sans-serif; text-anchor: end; fill: #262626" x="45.806334" y="132.907218" transform="rotate(-0 45.806334 132.907218)">0.02</text>
     </g>
    </g>
    <g id="ytick_4">
     <g id="line2d_7">
      <g>
       <use xlink:href="#m02b8156420" x="55.306334" y="100.300113" style="fill: #262626; stroke: #262626; stroke-width: 1.25"/>
      </g>
     </g>
     <g id="text_8">
      <text style="font-size: 11px; font-family: 'Arial', 'DejaVu Sans', 'Liberation Sans', 'Bitstream Vera Sans', sans-serif; text-anchor: end; fill: #262626" x="45.806334" y="104.23691" transform="rotate(-0 45.806334 104.23691)">0.04</text>
     </g>
    </g>
    <g id="ytick_5">
     <g id="line2d_8">
      <g>
       <use xlink:href="#m02b8156420" x="55.306334" y="71.629806" style="fill: #262626; stroke: #262626; stroke-width: 1.25"/>
      </g>
     </g>
     <g id="text_9">
      <text style="font-size: 11px; font-family: 'Arial', 'DejaVu Sans', 'Liberation Sans', 'Bitstream Vera Sans', sans-serif; text-anchor: end; fill: #262626" x="45.806334" y="75.566603" transform="rotate(-0 45.806334 75.566603)">0.06</text>
     </g>
    </g>
    <g id="ytick_6">
     <g id="line2d_9">
      <g>
       <use xlink:href="#m02b8156420" x="55.306334" y="42.959499" style="fill: #262626; stroke: #262626; stroke-width: 1.25"/>
      </g>
     </g>
     <g id="text_10">
      <text style="font-size: 11px; font-family: 'Arial', 'DejaVu Sans', 'Liberation Sans', 'Bitstream Vera Sans', sans-serif; text-anchor: end; fill: #262626" x="45.806334" y="46.896295" transform="rotate(-0 45.806334 46.896295)">0.08</text>
     </g>
    </g>
    <g id="text_11">
     <text style="font-size: 12px; font-family: 'Arial', 'DejaVu Sans', 'Liberation Sans', 'Bitstream Vera Sans', sans-serif; text-anchor: middle; fill: #262626" x="11.589615" y="102.776163" transform="rotate(-90 11.589615 102.776163)">Autocorrelation</text>
    </g>
   </g>
   <g id="line2d_10">
    <path d="M 55.306334 157.640728 
L 222.637555 157.640728 
" clip-path="url(#p4c154dff4e)" style="fill: none; stroke-dasharray: 2.96,1.28; stroke-dashoffset: 0; stroke: #808080; stroke-width: 0.8"/>
   </g>
   <g id="patch_3">
    <path d="M 55.306334 187.962712 
L 55.306334 17.589615 
" style="fill: none; stroke: #262626; stroke-width: 1.25; stroke-linejoin: miter; stroke-linecap: square"/>
   </g>
   <g id="patch_4">
    <path d="M 55.306334 187.962712 
L 222.637555 187.962712 
" style="fill: none; stroke: #262626; stroke-width: 1.25; stroke-linejoin: miter; stroke-linecap: square"/>
   </g>
   <g id="line2d_11">
    <path d="M 62.912298 36.447421 
L 66.016774 110.513659 
L 69.121249 114.264176 
L 72.225724 125.569452 
L 75.3302 120.447078 
L 78.434675 126.221529 
L 81.53915 126.639909 
L 84.643626 132.591426 
L 87.748101 137.336569 
L 90.852577 144.875781 
L 93.957052 144.123549 
L 97.061527 143.651668 
L 100.166003 144.565755 
L 103.270478 142.103844 
L 106.374953 143.217347 
L 109.479429 155.4337 
L 112.583904 138.00488 
L 115.688379 146.668692 
L 118.792855 148.705537 
L 121.89733 157.584383 
L 125.001805 155.142488 
L 128.106281 152.660309 
L 131.210756 158.800613 
L 134.315231 156.176794 
L 137.419707 158.050096 
L 140.524182 152.229225 
L 143.628658 158.538738 
L 146.733133 160.634284 
L 149.837608 153.347531 
L 152.942084 154.069056 
L 156.046559 151.075798 
L 159.151034 161.918062 
L 162.25551 154.71889 
L 165.359985 164.640816 
L 168.46446 167.138308 
L 171.568936 162.628135 
L 174.673411 157.927923 
L 177.777886 164.824722 
L 180.882362 152.036886 
L 183.986837 155.28538 
L 187.091312 162.293324 
L 190.195788 162.127993 
L 193.300263 148.319976 
L 196.404739 154.026854 
L 199.509214 157.625607 
L 202.613689 159.631541 
L 205.718165 156.822909 
L 208.82264 154.027663 
L 211.927115 162.961833 
L 215.031591 155.15606 
" clip-path="url(#p4c154dff4e)" style="fill: none; stroke: #1f77b4; stroke-width: 1.5; stroke-linecap: round"/>
   </g>
   <g id="line2d_12">
    <path d="M 62.912298 33.542337 
L 66.016774 119.402395 
L 69.121249 125.58327 
L 72.225724 127.785834 
L 75.3302 124.448176 
L 78.434675 132.59593 
L 81.53915 134.400029 
L 84.643626 144.660511 
L 87.748101 146.901499 
L 90.852577 141.925956 
L 93.957052 143.769875 
L 97.061527 152.597959 
L 100.166003 150.785825 
L 103.270478 148.515297 
L 106.374953 151.844843 
L 109.479429 152.217007 
L 112.583904 160.262986 
L 115.688379 155.745728 
L 118.792855 158.917347 
L 121.89733 159.924122 
L 125.001805 164.49654 
L 128.106281 158.380387 
L 131.210756 158.457858 
L 134.315231 164.256374 
L 137.419707 162.225539 
L 140.524182 155.766376 
L 143.628658 160.458762 
L 146.733133 160.903507 
L 149.837608 162.44133 
L 152.942084 162.34428 
L 156.046559 164.660039 
L 159.151034 161.434228 
L 162.25551 152.51453 
L 165.359985 159.581857 
L 168.46446 143.091492 
L 171.568936 168.705765 
L 174.673411 180.21848 
L 177.777886 159.430245 
L 180.882362 155.528212 
L 183.986837 163.64422 
L 187.091312 172.782488 
L 190.195788 165.327153 
L 193.300263 163.671502 
L 196.404739 164.983549 
L 199.509214 169.139402 
L 202.613689 169.008638 
L 205.718165 166.341481 
L 208.82264 158.17594 
L 211.927115 168.358588 
L 215.031591 165.282173 
" clip-path="url(#p4c154dff4e)" style="fill: none; stroke: #d62728; stroke-width: 1.5; stroke-linecap: round"/>
   </g>
   <g id="text_12">
    <text style="font-size: 12px; font-family: 'Arial', 'DejaVu Sans', 'Liberation Sans', 'Bitstream Vera Sans', sans-serif; text-anchor: middle; fill: #262626" x="138.971945" y="11.589615" transform="rotate(-0 138.971945 11.589615)">Repetition</text>
   </g>
   <g id="LineCollection_1">
    <path d="M 62.912298 47.560996 
L 62.912298 25.333847 
" clip-path="url(#p4c154dff4e)" style="fill: none; stroke: #1f77b4; stroke-width: 1.5"/>
    <path d="M 66.016774 117.10459 
L 66.016774 103.922728 
" clip-path="url(#p4c154dff4e)" style="fill: none; stroke: #1f77b4; stroke-width: 1.5"/>
    <path d="M 69.121249 120.403081 
L 69.121249 108.125271 
" clip-path="url(#p4c154dff4e)" style="fill: none; stroke: #1f77b4; stroke-width: 1.5"/>
    <path d="M 72.225724 131.114986 
L 72.225724 120.023919 
" clip-path="url(#p4c154dff4e)" style="fill: none; stroke: #1f77b4; stroke-width: 1.5"/>
    <path d="M 75.3302 126.308842 
L 75.3302 114.585314 
" clip-path="url(#p4c154dff4e)" style="fill: none; stroke: #1f77b4; stroke-width: 1.5"/>
    <path d="M 78.434675 134.590681 
L 78.434675 117.852377 
" clip-path="url(#p4c154dff4e)" style="fill: none; stroke: #1f77b4; stroke-width: 1.5"/>
    <path d="M 81.53915 132.877298 
L 81.53915 120.402519 
" clip-path="url(#p4c154dff4e)" style="fill: none; stroke: #1f77b4; stroke-width: 1.5"/>
    <path d="M 84.643626 137.800712 
L 84.643626 127.38214 
" clip-path="url(#p4c154dff4e)" style="fill: none; stroke: #1f77b4; stroke-width: 1.5"/>
    <path d="M 87.748101 143.483438 
L 87.748101 131.1897 
" clip-path="url(#p4c154dff4e)" style="fill: none; stroke: #1f77b4; stroke-width: 1.5"/>
    <path d="M 90.852577 149.359284 
L 90.852577 140.392279 
" clip-path="url(#p4c154dff4e)" style="fill: none; stroke: #1f77b4; stroke-width: 1.5"/>
    <path d="M 93.957052 148.708519 
L 93.957052 139.538579 
" clip-path="url(#p4c154dff4e)" style="fill: none; stroke: #1f77b4; stroke-width: 1.5"/>
    <path d="M 97.061527 148.315554 
L 97.061527 138.987781 
" clip-path="url(#p4c154dff4e)" style="fill: none; stroke: #1f77b4; stroke-width: 1.5"/>
    <path d="M 100.166003 148.94743 
L 100.166003 140.18408 
" clip-path="url(#p4c154dff4e)" style="fill: none; stroke: #1f77b4; stroke-width: 1.5"/>
    <path d="M 103.270478 147.436177 
L 103.270478 136.771512 
" clip-path="url(#p4c154dff4e)" style="fill: none; stroke: #1f77b4; stroke-width: 1.5"/>
    <path d="M 106.374953 148.172739 
L 106.374953 138.261956 
" clip-path="url(#p4c154dff4e)" style="fill: none; stroke: #1f77b4; stroke-width: 1.5"/>
    <path d="M 109.479429 158.675295 
L 109.479429 152.192104 
" clip-path="url(#p4c154dff4e)" style="fill: none; stroke: #1f77b4; stroke-width: 1.5"/>
    <path d="M 112.583904 143.903922 
L 112.583904 132.105838 
" clip-path="url(#p4c154dff4e)" style="fill: none; stroke: #1f77b4; stroke-width: 1.5"/>
    <path d="M 115.688379 151.671066 
L 115.688379 141.666318 
" clip-path="url(#p4c154dff4e)" style="fill: none; stroke: #1f77b4; stroke-width: 1.5"/>
    <path d="M 118.792855 155.762009 
L 118.792855 141.649066 
" clip-path="url(#p4c154dff4e)" style="fill: none; stroke: #1f77b4; stroke-width: 1.5"/>
    <path d="M 121.89733 163.050558 
L 121.89733 152.118209 
" clip-path="url(#p4c154dff4e)" style="fill: none; stroke: #1f77b4; stroke-width: 1.5"/>
    <path d="M 125.001805 159.315811 
L 125.001805 150.969164 
" clip-path="url(#p4c154dff4e)" style="fill: none; stroke: #1f77b4; stroke-width: 1.5"/>
    <path d="M 128.106281 158.192008 
L 128.106281 147.12861 
" clip-path="url(#p4c154dff4e)" style="fill: none; stroke: #1f77b4; stroke-width: 1.5"/>
    <path d="M 131.210756 164.044893 
L 131.210756 153.556333 
" clip-path="url(#p4c154dff4e)" style="fill: none; stroke: #1f77b4; stroke-width: 1.5"/>
    <path d="M 134.315231 162.921365 
L 134.315231 149.432224 
" clip-path="url(#p4c154dff4e)" style="fill: none; stroke: #1f77b4; stroke-width: 1.5"/>
    <path d="M 137.419707 164.321084 
L 137.419707 151.779108 
" clip-path="url(#p4c154dff4e)" style="fill: none; stroke: #1f77b4; stroke-width: 1.5"/>
    <path d="M 140.524182 158.187997 
L 140.524182 146.270453 
" clip-path="url(#p4c154dff4e)" style="fill: none; stroke: #1f77b4; stroke-width: 1.5"/>
    <path d="M 143.628658 165.256964 
L 143.628658 151.820513 
" clip-path="url(#p4c154dff4e)" style="fill: none; stroke: #1f77b4; stroke-width: 1.5"/>
    <path d="M 146.733133 166.80528 
L 146.733133 154.463287 
" clip-path="url(#p4c154dff4e)" style="fill: none; stroke: #1f77b4; stroke-width: 1.5"/>
    <path d="M 149.837608 161.294517 
L 149.837608 145.400545 
" clip-path="url(#p4c154dff4e)" style="fill: none; stroke: #1f77b4; stroke-width: 1.5"/>
    <path d="M 152.942084 159.131748 
L 152.942084 149.006364 
" clip-path="url(#p4c154dff4e)" style="fill: none; stroke: #1f77b4; stroke-width: 1.5"/>
    <path d="M 156.046559 155.868083 
L 156.046559 146.283512 
" clip-path="url(#p4c154dff4e)" style="fill: none; stroke: #1f77b4; stroke-width: 1.5"/>
    <path d="M 159.151034 167.001301 
L 159.151034 156.834823 
" clip-path="url(#p4c154dff4e)" style="fill: none; stroke: #1f77b4; stroke-width: 1.5"/>
    <path d="M 162.25551 159.634422 
L 162.25551 149.803357 
" clip-path="url(#p4c154dff4e)" style="fill: none; stroke: #1f77b4; stroke-width: 1.5"/>
    <path d="M 165.359985 171.333006 
L 165.359985 157.948625 
" clip-path="url(#p4c154dff4e)" style="fill: none; stroke: #1f77b4; stroke-width: 1.5"/>
    <path d="M 168.46446 173.614209 
L 168.46446 160.662406 
" clip-path="url(#p4c154dff4e)" style="fill: none; stroke: #1f77b4; stroke-width: 1.5"/>
    <path d="M 171.568936 170.760379 
L 171.568936 154.49589 
" clip-path="url(#p4c154dff4e)" style="fill: none; stroke: #1f77b4; stroke-width: 1.5"/>
    <path d="M 174.673411 163.581937 
L 174.673411 152.273909 
" clip-path="url(#p4c154dff4e)" style="fill: none; stroke: #1f77b4; stroke-width: 1.5"/>
    <path d="M 177.777886 170.167087 
L 177.777886 159.482358 
" clip-path="url(#p4c154dff4e)" style="fill: none; stroke: #1f77b4; stroke-width: 1.5"/>
    <path d="M 180.882362 155.893138 
L 180.882362 148.180633 
" clip-path="url(#p4c154dff4e)" style="fill: none; stroke: #1f77b4; stroke-width: 1.5"/>
    <path d="M 183.986837 160.393135 
L 183.986837 150.177624 
" clip-path="url(#p4c154dff4e)" style="fill: none; stroke: #1f77b4; stroke-width: 1.5"/>
    <path d="M 187.091312 168.236159 
L 187.091312 156.350489 
" clip-path="url(#p4c154dff4e)" style="fill: none; stroke: #1f77b4; stroke-width: 1.5"/>
    <path d="M 190.195788 167.789569 
L 190.195788 156.466417 
" clip-path="url(#p4c154dff4e)" style="fill: none; stroke: #1f77b4; stroke-width: 1.5"/>
    <path d="M 193.300263 153.559357 
L 193.300263 143.080595 
" clip-path="url(#p4c154dff4e)" style="fill: none; stroke: #1f77b4; stroke-width: 1.5"/>
    <path d="M 196.404739 160.404236 
L 196.404739 147.649473 
" clip-path="url(#p4c154dff4e)" style="fill: none; stroke: #1f77b4; stroke-width: 1.5"/>
    <path d="M 199.509214 163.583094 
L 199.509214 151.668121 
" clip-path="url(#p4c154dff4e)" style="fill: none; stroke: #1f77b4; stroke-width: 1.5"/>
    <path d="M 202.613689 164.327198 
L 202.613689 154.935884 
" clip-path="url(#p4c154dff4e)" style="fill: none; stroke: #1f77b4; stroke-width: 1.5"/>
    <path d="M 205.718165 162.107179 
L 205.718165 151.53864 
" clip-path="url(#p4c154dff4e)" style="fill: none; stroke: #1f77b4; stroke-width: 1.5"/>
    <path d="M 208.82264 158.615008 
L 208.82264 149.440319 
" clip-path="url(#p4c154dff4e)" style="fill: none; stroke: #1f77b4; stroke-width: 1.5"/>
    <path d="M 211.927115 168.253932 
L 211.927115 157.669734 
" clip-path="url(#p4c154dff4e)" style="fill: none; stroke: #1f77b4; stroke-width: 1.5"/>
    <path d="M 215.031591 161.023749 
L 215.031591 149.288372 
" clip-path="url(#p4c154dff4e)" style="fill: none; stroke: #1f77b4; stroke-width: 1.5"/>
   </g>
   <g id="line2d_13">
    <defs>
     <path id="m2e42418312" d="M 0 0.5 
C 0.132602 0.5 0.25979 0.447317 0.353553 0.353553 
C 0.447317 0.25979 0.5 0.132602 0.5 0 
C 0.5 -0.132602 0.447317 -0.25979 0.353553 -0.353553 
C 0.25979 -0.447317 0.132602 -0.5 0 -0.5 
C -0.132602 -0.5 -0.25979 -0.447317 -0.353553 -0.353553 
C -0.447317 -0.25979 -0.5 -0.132602 -0.5 0 
C -0.5 0.132602 -0.447317 0.25979 -0.353553 0.353553 
C -0.25979 0.447317 -0.132602 0.5 0 0.5 
z
" style="stroke: #1f77b4"/>
    </defs>
    <g clip-path="url(#p4c154dff4e)">
     <use xlink:href="#m2e42418312" x="62.912298" y="36.447421" style="fill: #1f77b4; stroke: #1f77b4"/>
     <use xlink:href="#m2e42418312" x="66.016774" y="110.513659" style="fill: #1f77b4; stroke: #1f77b4"/>
     <use xlink:href="#m2e42418312" x="69.121249" y="114.264176" style="fill: #1f77b4; stroke: #1f77b4"/>
     <use xlink:href="#m2e42418312" x="72.225724" y="125.569452" style="fill: #1f77b4; stroke: #1f77b4"/>
     <use xlink:href="#m2e42418312" x="75.3302" y="120.447078" style="fill: #1f77b4; stroke: #1f77b4"/>
     <use xlink:href="#m2e42418312" x="78.434675" y="126.221529" style="fill: #1f77b4; stroke: #1f77b4"/>
     <use xlink:href="#m2e42418312" x="81.53915" y="126.639909" style="fill: #1f77b4; stroke: #1f77b4"/>
     <use xlink:href="#m2e42418312" x="84.643626" y="132.591426" style="fill: #1f77b4; stroke: #1f77b4"/>
     <use xlink:href="#m2e42418312" x="87.748101" y="137.336569" style="fill: #1f77b4; stroke: #1f77b4"/>
     <use xlink:href="#m2e42418312" x="90.852577" y="144.875781" style="fill: #1f77b4; stroke: #1f77b4"/>
     <use xlink:href="#m2e42418312" x="93.957052" y="144.123549" style="fill: #1f77b4; stroke: #1f77b4"/>
     <use xlink:href="#m2e42418312" x="97.061527" y="143.651668" style="fill: #1f77b4; stroke: #1f77b4"/>
     <use xlink:href="#m2e42418312" x="100.166003" y="144.565755" style="fill: #1f77b4; stroke: #1f77b4"/>
     <use xlink:href="#m2e42418312" x="103.270478" y="142.103844" style="fill: #1f77b4; stroke: #1f77b4"/>
     <use xlink:href="#m2e42418312" x="106.374953" y="143.217347" style="fill: #1f77b4; stroke: #1f77b4"/>
     <use xlink:href="#m2e42418312" x="109.479429" y="155.4337" style="fill: #1f77b4; stroke: #1f77b4"/>
     <use xlink:href="#m2e42418312" x="112.583904" y="138.00488" style="fill: #1f77b4; stroke: #1f77b4"/>
     <use xlink:href="#m2e42418312" x="115.688379" y="146.668692" style="fill: #1f77b4; stroke: #1f77b4"/>
     <use xlink:href="#m2e42418312" x="118.792855" y="148.705537" style="fill: #1f77b4; stroke: #1f77b4"/>
     <use xlink:href="#m2e42418312" x="121.89733" y="157.584383" style="fill: #1f77b4; stroke: #1f77b4"/>
     <use xlink:href="#m2e42418312" x="125.001805" y="155.142488" style="fill: #1f77b4; stroke: #1f77b4"/>
     <use xlink:href="#m2e42418312" x="128.106281" y="152.660309" style="fill: #1f77b4; stroke: #1f77b4"/>
     <use xlink:href="#m2e42418312" x="131.210756" y="158.800613" style="fill: #1f77b4; stroke: #1f77b4"/>
     <use xlink:href="#m2e42418312" x="134.315231" y="156.176794" style="fill: #1f77b4; stroke: #1f77b4"/>
     <use xlink:href="#m2e42418312" x="137.419707" y="158.050096" style="fill: #1f77b4; stroke: #1f77b4"/>
     <use xlink:href="#m2e42418312" x="140.524182" y="152.229225" style="fill: #1f77b4; stroke: #1f77b4"/>
     <use xlink:href="#m2e42418312" x="143.628658" y="158.538738" style="fill: #1f77b4; stroke: #1f77b4"/>
     <use xlink:href="#m2e42418312" x="146.733133" y="160.634284" style="fill: #1f77b4; stroke: #1f77b4"/>
     <use xlink:href="#m2e42418312" x="149.837608" y="153.347531" style="fill: #1f77b4; stroke: #1f77b4"/>
     <use xlink:href="#m2e42418312" x="152.942084" y="154.069056" style="fill: #1f77b4; stroke: #1f77b4"/>
     <use xlink:href="#m2e42418312" x="156.046559" y="151.075798" style="fill: #1f77b4; stroke: #1f77b4"/>
     <use xlink:href="#m2e42418312" x="159.151034" y="161.918062" style="fill: #1f77b4; stroke: #1f77b4"/>
     <use xlink:href="#m2e42418312" x="162.25551" y="154.71889" style="fill: #1f77b4; stroke: #1f77b4"/>
     <use xlink:href="#m2e42418312" x="165.359985" y="164.640816" style="fill: #1f77b4; stroke: #1f77b4"/>
     <use xlink:href="#m2e42418312" x="168.46446" y="167.138308" style="fill: #1f77b4; stroke: #1f77b4"/>
     <use xlink:href="#m2e42418312" x="171.568936" y="162.628135" style="fill: #1f77b4; stroke: #1f77b4"/>
     <use xlink:href="#m2e42418312" x="174.673411" y="157.927923" style="fill: #1f77b4; stroke: #1f77b4"/>
     <use xlink:href="#m2e42418312" x="177.777886" y="164.824722" style="fill: #1f77b4; stroke: #1f77b4"/>
     <use xlink:href="#m2e42418312" x="180.882362" y="152.036886" style="fill: #1f77b4; stroke: #1f77b4"/>
     <use xlink:href="#m2e42418312" x="183.986837" y="155.28538" style="fill: #1f77b4; stroke: #1f77b4"/>
     <use xlink:href="#m2e42418312" x="187.091312" y="162.293324" style="fill: #1f77b4; stroke: #1f77b4"/>
     <use xlink:href="#m2e42418312" x="190.195788" y="162.127993" style="fill: #1f77b4; stroke: #1f77b4"/>
     <use xlink:href="#m2e42418312" x="193.300263" y="148.319976" style="fill: #1f77b4; stroke: #1f77b4"/>
     <use xlink:href="#m2e42418312" x="196.404739" y="154.026854" style="fill: #1f77b4; stroke: #1f77b4"/>
     <use xlink:href="#m2e42418312" x="199.509214" y="157.625607" style="fill: #1f77b4; stroke: #1f77b4"/>
     <use xlink:href="#m2e42418312" x="202.613689" y="159.631541" style="fill: #1f77b4; stroke: #1f77b4"/>
     <use xlink:href="#m2e42418312" x="205.718165" y="156.822909" style="fill: #1f77b4; stroke: #1f77b4"/>
     <use xlink:href="#m2e42418312" x="208.82264" y="154.027663" style="fill: #1f77b4; stroke: #1f77b4"/>
     <use xlink:href="#m2e42418312" x="211.927115" y="162.961833" style="fill: #1f77b4; stroke: #1f77b4"/>
     <use xlink:href="#m2e42418312" x="215.031591" y="155.15606" style="fill: #1f77b4; stroke: #1f77b4"/>
    </g>
   </g>
   <g id="legend_1">
    <g id="line2d_14">
     <path d="M 117.788649 31.513209 
L 128.788649 31.513209 
L 139.788649 31.513209 
" style="fill: none; stroke: #d62728; stroke-width: 1.5; stroke-linecap: round"/>
    </g>
    <g id="text_13">
     <text style="font-size: 11px; font-family: 'Arial', 'DejaVu Sans', 'Liberation Sans', 'Bitstream Vera Sans', sans-serif; text-anchor: start; fill: #262626" x="148.588649" y="35.363209" transform="rotate(-0 148.588649 35.363209)">GLM-HMM-T</text>
    </g>
    <g id="LineCollection_2">
     <path d="M 128.788649 52.573053 
L 128.788649 41.573053 
" style="fill: none; stroke: #1f77b4; stroke-width: 1.5"/>
    </g>
    <g id="line2d_15"/>
    <g id="line2d_16">
     <g>
      <use xlink:href="#m2e42418312" x="128.788649" y="47.073053" style="fill: #1f77b4; stroke: #1f77b4"/>
     </g>
    </g>
    <g id="text_14">
     <text style="font-size: 11px; font-family: 'Arial', 'DejaVu Sans', 'Liberation Sans', 'Bitstream Vera Sans', sans-serif; text-anchor: start; fill: #262626" x="148.588649" y="50.923053" transform="rotate(-0 148.588649 50.923053)">Data</text>
    </g>
   </g>
  </g>
 </g>
 <defs>
  <clipPath id="p4c154dff4e">
   <rect x="55.306334" y="17.589615" width="167.331222" height="170.373097"/>
  </clipPath>
 </defs>
</svg>
